<?xml version="1.0" standalone="no"?>
<!DOCTYPE svg PUBLIC "-//W3C//DTD SVG 20010904//EN"
 "http://www.w3.org/TR/2001/REC-SVG-20010904/DTD/svg10.dtd">
<svg version="1.0" xmlns="http://www.w3.org/2000/svg"
 width="303.000000pt" height="303.000000pt" viewBox="0 0 303.000000 303.000000"
 preserveAspectRatio="xMidYMid meet">
<metadata>
Created by potrace 1.14, written by Peter Selinger 2001-2017
</metadata>
<g transform="translate(0.000000,303.000000) scale(0.100000,-0.100000)"
fill="#000000" stroke="none">
<path d="M0 1515 l0 -1515 938 0 c921 1 1062 4 1062 22 0 5 -4 6 -10 3 -5 -3
-10 -1 -10 4 0 17 18 13 29 -6 9 -17 46 -18 515 -21 l506 -3 0 1516 0 1515
-128 0 -128 0 4 -67 c2 -53 -1 -76 -16 -103 -29 -53 -88 -90 -153 -96 -48 -5
-59 -3 -99 24 -25 17 -54 45 -64 63 -21 35 -27 117 -13 157 l8 22 -931 0 -931
0 7 -22 c3 -11 7 -42 7 -67 2 -134 -134 -219 -259 -162 -86 39 -126 142 -89
234 7 16 -3 17 -119 17 l-126 0 0 -1515z m1681 1171 c175 -37 361 -159 456
-297 37 -54 78 -140 88 -186 l7 -33 -119 -1 c-65 -1 -133 -3 -152 -5 -28 -3
-32 -2 -21 11 7 8 27 17 46 21 19 3 34 10 34 14 0 15 -30 79 -62 133 l-33 54
-63 -58 -64 -58 28 -68 c37 -87 38 -196 5 -288 l-21 -60 22 -17 c13 -10 42
-31 64 -48 l42 -30 16 25 c31 47 71 178 62 202 -3 7 -18 13 -33 13 -34 0 -48
9 -49 32 -1 13 2 15 15 9 9 -4 74 -9 146 -10 71 -2 131 -3 132 -4 2 -3 5 -280
4 -379 l-1 -68 -68 0 c-67 0 -68 0 -86 35 -21 38 -63 68 -110 79 -17 4 -35 14
-41 22 -13 18 -42 9 -50 -16 -3 -10 -12 -24 -20 -30 -17 -14 -47 1 -98 48
l-27 26 -47 -23 c-25 -12 -65 -26 -89 -30 l-44 -8 0 47 c0 45 2 49 30 55 34 8
90 67 90 96 0 49 -57 109 -103 109 -11 0 -15 36 -20 188 -3 103 -2 190 2 194
7 8 95 -13 129 -31 18 -10 22 -9 22 3 0 8 4 16 8 18 4 2 33 35 65 75 l57 72
-28 18 c-15 10 -44 26 -64 36 l-38 17 -14 -34 -14 -33 -58 12 -59 12 -3 76 -3
77 33 0 c18 0 63 -7 99 -14z m-1331 -146 c12 -8 16 -48 18 -235 3 -164 0 -230
-8 -240 -20 -24 -77 -30 -105 -11 l-25 16 0 234 c0 178 3 236 13 239 21 9 91
7 107 -3z m2408 4 l22 -6 0 -232 c0 -167 -3 -235 -12 -244 -20 -20 -92 -15
-112 7 -16 18 -18 41 -14 241 3 241 3 240 63 240 17 0 40 -3 53 -6z m-1718
-38 c0 -2 -8 -10 -17 -17 -16 -13 -17 -12 -4 4 13 16 21 21 21 13z m70 -76 c0
-5 -7 -7 -15 -4 -8 4 -12 10 -9 15 6 11 24 2 24 -11z m-86 -2 c-4 -5 -9 -7
-12 -4 -3 3 -12 0 -21 -7 -14 -10 -14 -10 -4 4 13 16 46 23 37 7z m-22 -190
c-7 -7 -12 -8 -12 -2 0 14 12 26 19 19 2 -3 -1 -11 -7 -17z m53 -58 c4 -6 -11
-10 -37 -10 -31 0 -39 3 -28 10 20 13 57 13 65 0z m-62 -168 c-17 -11 -10
-106 11 -156 9 -22 14 -41 11 -44 -3 -3 -5 0 -5 7 0 7 -5 9 -12 5 -6 -4 -8 -3
-4 4 7 11 -22 82 -39 94 -6 5 -5 8 2 8 8 0 11 9 9 23 -3 12 -5 30 -5 39 -1 9
-9 19 -18 21 -10 3 0 5 22 6 23 0 35 -3 28 -7z m79 -202 c-26 -25 -28 -47 -5
-72 15 -17 15 -18 -1 -18 -10 0 -20 9 -23 20 -3 11 -9 18 -12 15 -4 -2 -8 2
-8 10 0 8 4 12 9 9 4 -3 8 -1 8 5 0 5 -3 11 -7 14 -5 2 -3 3 3 1 6 -1 16 7 22
17 7 10 17 19 24 19 6 0 2 -9 -10 -20z m83 -226 c79 -37 47 -164 -41 -164 -45
0 -94 42 -94 82 0 39 15 64 48 82 35 19 47 19 87 0z m810 -19 c29 -28 31 -54
10 -95 -29 -56 -85 -66 -134 -24 -39 32 -41 71 -5 113 34 41 92 44 129 6z
m-239 -177 c46 -60 81 -76 173 -77 72 -1 134 27 165 74 15 23 23 25 87 25 l70
0 -7 -37 c-9 -51 -30 -91 -68 -131 -46 -49 -85 -62 -188 -62 l-89 0 3 -42 3
-43 70 -5 70 -5 0 -264 0 -263 -75 -29 c-41 -15 -81 -28 -87 -28 -10 -1 -13
22 -13 84 l0 85 -84 0 c-45 0 -111 3 -145 6 l-61 7 0 58 0 58 83 3 82 3 3 53
3 52 -95 0 -96 0 0 258 c0 142 3 262 7 265 3 4 39 7 78 7 l72 0 39 -52z
m-1343 -643 c-12 -9 -23 -10 -35 -4 -24 13 -48 12 -28 -1 19 -12 4 -13 -19 -1
-19 10 -50 -3 -38 -16 5 -4 11 -2 15 4 5 8 10 7 18 -2 9 -9 4 -12 -22 -13 -30
-1 -34 2 -34 22 0 30 4 32 91 28 61 -3 68 -5 52 -17z m2392 -40 l0 -60 -110 0
-110 0 0 53 c1 35 6 56 15 63 8 5 58 8 110 7 l95 -3 0 -60z m-2515 -26 c0 -5
-4 -9 -10 -9 -5 0 -10 7 -10 16 0 8 5 12 10 9 6 -3 10 -10 10 -16z m1474 -126
c1 -18 -2 -33 -6 -33 -5 0 -46 0 -93 0 l-85 0 0 35 0 36 92 -3 92 -3 0 -32z
m964 -130 c47 -30 82 -91 82 -139 -1 -38 -31 -103 -61 -131 -48 -43 -125 -56
-178 -28 -64 33 -108 117 -96 183 23 125 149 182 253 115z m-958 -88 l0 -84
-52 -16 c-28 -8 -71 -15 -95 -15 l-43 0 0 100 0 100 95 0 95 0 0 -85z m230
-300 c0 -12 -19 -12 -23 0 -4 9 -1 12 9 8 7 -3 14 -7 14 -8z"/>
</g>
</svg>
