<?xml version="1.0" standalone="no"?>
<!DOCTYPE svg PUBLIC "-//W3C//DTD SVG 20010904//EN"
 "http://www.w3.org/TR/2001/REC-SVG-20010904/DTD/svg10.dtd">
<svg version="1.0" xmlns="http://www.w3.org/2000/svg"
 width="1024.000000pt" height="1024.000000pt" viewBox="0 0 1024.000000 1024.000000"
 preserveAspectRatio="xMidYMid meet">
<metadata>
Created by potrace 1.14, written by Peter Selinger 2001-2017
</metadata>
<g transform="translate(0.000000,1024.000000) scale(0.100000,-0.100000)"
fill="#000000" stroke="none">
<path d="M4880 8904 c-720 -52 -1380 -277 -2000 -683 -378 -247 -732 -595
-1031 -1013 -373 -521 -592 -1106 -665 -1778 -69 -629 50 -1367 315 -1964 192
-434 495 -858 868 -1216 321 -309 748 -588 1185 -775 798 -340 1672 -404 2521
-185 580 149 1156 450 1612 841 140 120 349 339 481 504 389 489 604 937 740
1544 82 363 109 637 101 995 -21 912 -397 1796 -1064 2506 -289 308 -664 578
-1113 804 -447 224 -873 350 -1370 406 -100 12 -486 21 -580 14z m640 -323
c260 -34 445 -78 715 -171 266 -92 456 -182 751 -356 384 -225 748 -551 1011
-905 405 -546 598 -1023 682 -1689 15 -112 16 -161 6 -184 -6 -14 -5 -17 4
-12 9 6 11 -42 11 -199 -1 -206 -4 -240 -21 -229 -5 2 -4 13 3 23 7 11 8 28 3
47 l-9 29 -4 -30 c-5 -30 -5 -30 -12 -5 -8 24 -8 24 -9 3 -1 -13 -5 -23 -10
-23 -4 0 -7 12 -5 26 4 40 -41 75 -65 51 -8 -8 -11 -8 -11 1 0 7 -6 12 -12 12
-9 0 -12 17 -10 58 3 51 0 62 -23 90 -14 17 -35 34 -46 37 -11 4 -18 12 -16
19 3 6 1 29 -3 51 l-8 40 -1 -47 -1 -48 -40 0 c-84 0 -144 -59 -144 -141 0
-28 7 -57 18 -73 39 -60 127 -84 189 -51 16 8 25 9 21 3 -5 -8 -1 -9 12 -5 18
7 18 6 2 -7 -10 -7 -18 -23 -18 -36 0 -18 4 -22 25 -18 13 3 22 1 19 -3 -8
-14 -54 -10 -55 4 -1 6 -2 18 -3 26 0 8 -6 16 -12 18 -13 4 -30 -189 -19 -207
3 -5 2 -10 -2 -10 -5 0 -14 -37 -21 -82 -42 -268 -140 -622 -237 -853 -9 -22
-22 -53 -28 -70 -65 -163 -239 -460 -351 -598 -293 -362 -569 -607 -941 -839
-315 -196 -601 -321 -966 -422 -362 -101 -863 -137 -1176 -86 -32 6 -69 10
-83 9 -23 0 -23 -1 -5 -8 11 -5 24 -6 28 -4 5 3 4 -4 -2 -15 -8 -15 -8 -22 2
-26 6 -2 -3 -2 -20 1 -21 3 -33 1 -33 -6 0 -6 9 -11 20 -11 11 0 20 -4 20 -10
0 -5 10 -10 21 -10 18 0 21 -4 16 -30 -4 -16 -16 -39 -27 -50 -11 -11 -20 -25
-20 -31 0 -13 -39 -2 -58 17 -7 8 -15 14 -18 14 -9 0 -3 -10 20 -33 17 -18 32
-23 50 -20 17 4 26 1 26 -7 0 -9 -11 -11 -37 -6 -21 3 -49 6 -63 7 -14 0 -19
3 -12 6 6 2 12 9 12 14 0 6 -5 7 -12 3 -8 -5 -9 -2 -5 10 4 10 3 15 -3 11 -6
-3 -10 -13 -10 -21 0 -8 -9 -14 -20 -14 -38 0 -310 63 -305 70 3 5 -4 6 -15 3
-11 -3 -20 -1 -20 5 0 6 -10 8 -22 4 -14 -3 -19 -1 -14 6 4 8 2 10 -7 6 -19
-7 -205 54 -374 122 -481 194 -906 475 -1248 825 -407 416 -653 806 -822 1303
-233 686 -262 1444 -82 2126 191 722 646 1376 1309 1882 391 298 837 511 1335
638 235 60 336 76 675 104 109 9 463 -4 610 -23z m3084 -3637 c21 -8 21 -24 0
-24 -8 0 -12 5 -8 11 4 8 -1 9 -17 4 -19 -5 -21 -4 -9 4 18 13 15 12 34 5z
m-48 -43 c-3 -5 -14 -11 -25 -14 -14 -3 -18 -1 -14 9 3 8 14 14 25 14 10 0 17
-4 14 -9z m74 -56 c-7 -8 -17 -12 -22 -9 -6 4 -5 10 3 15 22 14 33 10 19 -6z
m-53 -1 c-3 -3 -12 -4 -19 -1 -8 3 -5 6 6 6 11 1 17 -2 13 -5z m-101 -40 c-3
-9 -6 -32 -7 -52 l-1 -37 -9 35 c-9 38 -3 70 13 70 5 0 7 -7 4 -16z m44 10 c0
-3 -7 -12 -15 -20 -16 -17 -18 -14 -9 10 6 15 24 23 24 10z m-16 -69 c3 -8 1
-15 -4 -15 -6 0 -10 7 -10 15 0 8 2 15 4 15 2 0 6 -7 10 -15z m136 -9 c0 -3
-4 -8 -10 -11 -5 -3 -10 -1 -10 4 0 6 5 11 10 11 6 0 10 -2 10 -4z m40 -41
l-8 -40 -1 36 c0 20 2 39 6 42 11 11 11 4 3 -38z m-51 -1 c6 4 11 0 11 -9 0
-13 -4 -14 -20 -5 -11 6 -20 16 -20 23 0 8 3 8 9 -2 5 -7 14 -10 20 -7z m-152
-20 c-3 -3 -12 -4 -19 -1 -8 3 -5 6 6 6 11 1 17 -2 13 -5z m123 -24 c0 -5 -8
-10 -17 -10 -15 0 -16 2 -3 10 19 12 20 12 20 0z m64 -6 c3 -8 2 -12 -4 -9 -6
3 -10 10 -10 16 0 14 7 11 14 -7z m-18 -41 c-4 -4 -11 -1 -16 7 -16 25 -11 35
7 17 9 -9 13 -20 9 -24z m-111 17 c3 -5 1 -10 -4 -10 -6 0 -11 5 -11 10 0 6 2
10 4 10 3 0 8 -4 11 -10z m-80 -10 c3 -5 1 -10 -4 -10 -6 0 -11 5 -11 10 0 6
2 10 4 10 3 0 8 -4 11 -10z m205 -65 c0 -8 -2 -15 -4 -15 -2 0 -6 7 -10 15 -3
8 -1 15 4 15 6 0 10 -7 10 -15z m-38 -10 c10 -14 0 -25 -17 -18 -18 6 -20 34
-2 31 6 -2 15 -7 19 -13z m25 -67 c-3 -7 -5 -2 -5 12 0 14 2 19 5 13 2 -7 2
-19 0 -25z m-187 2 c0 -5 -2 -10 -4 -10 -3 0 -8 5 -11 10 -3 6 -1 10 4 10 6 0
11 -4 11 -10z m83 -50 c-3 -11 -9 -20 -15 -20 -5 0 -4 9 2 20 6 11 12 20 14
20 2 0 2 -9 -1 -20z m-3833 -2726 c0 -2 -9 -4 -21 -4 -11 0 -18 4 -14 10 5 8
35 3 35 -6z m80 2 c0 -2 -7 -7 -16 -10 -8 -3 -12 -2 -9 4 6 10 25 14 25 6z
m-49 -29 c-6 -8 -7 -18 -3 -22 4 -5 2 -5 -5 -2 -6 4 -14 1 -17 -5 -3 -10 -1
25 3 40 1 1 8 2 17 2 13 0 14 -3 5 -13z m-44 -39 c-3 -8 -6 -5 -6 6 -1 11 2
17 5 13 3 -3 4 -12 1 -19z m53 -8 c-8 -5 -19 -10 -25 -10 -5 0 -3 5 5 10 8 5
20 10 25 10 6 0 3 -5 -5 -10z m37 -12 c-3 -8 -6 -5 -6 6 -1 11 2 17 5 13 3 -3
4 -12 1 -19z m-47 -99 c0 -6 -4 -7 -10 -4 -5 3 -10 11 -10 16 0 6 5 7 10 4 6
-3 10 -11 10 -16z m-30 -22 c9 -3 4 -6 -12 -6 -23 -1 -28 3 -28 22 1 19 2 20
13 6 7 -9 19 -18 27 -22z m47 -3 c-3 -3 -12 -4 -19 -1 -8 3 -5 6 6 6 11 1 17
-2 13 -5z"/>
<path d="M5010 8134 c-157 -26 -229 -50 -332 -111 -68 -40 -172 -134 -212
-192 -18 -25 -37 -41 -57 -45 -37 -7 -451 -259 -914 -556 -88 -57 -189 -121
-225 -142 -36 -22 -72 -47 -82 -55 -9 -8 -29 -13 -45 -11 -27 3 -28 6 -31 59
-2 47 1 61 21 85 37 45 47 69 47 117 0 85 -65 149 -157 154 -104 7 -173 -58
-173 -160 0 -48 33 -127 52 -127 4 0 8 -29 8 -64 l0 -64 -67 -16 c-192 -49
-359 -202 -424 -389 -16 -45 -31 -70 -48 -79 -13 -7 -49 -40 -80 -74 -130
-142 -182 -342 -142 -546 13 -65 12 -67 -12 -100 -40 -54 -74 -130 -87 -193
-8 -42 -10 -216 -8 -590 3 -467 6 -537 21 -590 26 -91 88 -212 145 -287 l52
-67 -20 -77 c-27 -106 -27 -272 0 -380 76 -298 304 -529 595 -604 l70 -18 3
-46 c2 -36 -2 -53 -22 -78 -35 -47 -49 -109 -36 -156 12 -48 72 -109 119 -122
93 -24 189 40 207 138 7 39 -17 111 -46 137 -15 13 -20 31 -20 64 0 58 6 67
54 74 42 7 42 7 381 -208 344 -218 711 -441 807 -490 29 -15 45 -34 72 -90 85
-172 289 -330 477 -371 99 -21 290 -18 385 6 216 55 405 214 483 407 8 19 24
35 40 41 56 20 984 577 1151 692 17 11 37 16 63 12 l37 -4 0 -48 c0 -37 -8
-61 -31 -99 -56 -89 -39 -184 41 -237 79 -53 167 -36 227 43 23 30 28 46 28
92 0 47 -6 65 -32 107 -49 75 -43 144 11 144 42 0 187 59 261 105 42 26 103
72 136 102 116 108 218 296 248 458 17 89 13 229 -9 324 l-19 84 43 56 c106
138 153 265 166 456 10 148 10 777 0 935 -8 117 -31 194 -79 266 l-31 45 16
62 c21 80 21 215 -1 297 -30 116 -72 187 -165 280 -61 61 -92 101 -108 139
-75 182 -225 314 -427 376 l-70 22 -3 51 c-3 45 1 56 33 97 30 40 35 54 35 99
0 89 -60 155 -148 164 -65 6 -114 -11 -151 -53 -53 -61 -53 -149 -1 -208 23
-27 29 -44 32 -92 l3 -60 -32 -3 c-25 -3 -54 12 -145 71 -361 238 -1100 697
-1121 697 -7 0 -44 34 -82 76 -115 128 -219 195 -367 238 -80 23 -251 40 -308
30z m228 -289 c166 -52 272 -154 322 -309 10 -31 10 -40 -1 -47 -7 -4 -17 -5
-23 -2 -5 4 -1 10 10 14 17 7 17 8 -3 8 -13 1 -23 -5 -23 -11 0 -9 -3 -9 -9 1
-8 12 -12 12 -25 2 -19 -16 -22 -1 -3 18 10 11 9 13 -3 9 -17 -5 -17 -2 -20
-363 -1 -250 -10 -333 -35 -359 -8 -7 -12 -16 -9 -18 10 -11 -77 -77 -113 -87
-21 -5 -133 -11 -249 -13 -164 -2 -210 -6 -207 -15 3 -7 -1 -13 -9 -13 -17 0
-20 -29 -4 -50 10 -13 9 -13 -6 -1 -15 11 -18 11 -18 -1 0 -36 -97 4 -122 51
-7 14 -22 35 -33 47 -11 12 -29 46 -40 75 -18 50 -20 79 -20 364 0 272 2 317
18 370 28 91 65 151 130 211 142 131 320 174 495 119z m332 -375 c0 -5 -5 -10
-11 -10 -5 0 -7 5 -4 10 3 6 8 10 11 10 2 0 4 -4 4 -10z m-1192 -149 l-3 -139
-90 -60 c-150 -100 -560 -359 -605 -382 l-42 -21 -25 25 c-14 15 -22 30 -17
37 5 8 3 9 -5 4 -8 -4 -23 3 -39 18 -15 13 -44 36 -66 50 l-38 25 62 39 c97
59 675 425 770 486 47 30 89 56 93 56 5 1 7 -61 5 -138z m1754 -74 c177 -112
357 -225 398 -251 41 -27 96 -62 122 -78 l47 -30 -49 -39 c-27 -22 -54 -39
-60 -39 -6 0 -31 12 -56 26 -24 14 -44 21 -44 15 0 -6 4 -11 9 -11 22 0 17
-30 -11 -56 -17 -17 -28 -23 -26 -14 2 8 8 19 13 23 6 5 2 6 -8 3 -33 -11 -96
21 -359 184 -145 89 -273 169 -285 177 -22 13 -23 19 -23 153 0 77 2 140 4
140 2 0 150 -91 328 -203z m-1789 -482 c24 -172 165 -360 331 -440 71 -34 194
-65 257 -65 29 0 29 -1 31 -62 2 -69 -1 -160 -6 -166 -14 -13 -80 -12 -111 3
l-36 17 -135 -67 c-120 -59 -136 -70 -154 -106 -28 -53 -49 -50 -118 14 -31
29 -95 86 -142 127 -188 162 -206 182 -220 235 -21 80 -65 166 -115 222 l-46
53 97 62 c283 182 340 217 350 217 6 1 14 -19 17 -44z m1673 -60 c93 -58 193
-120 221 -138 47 -28 69 -57 44 -57 -4 0 -27 -27 -50 -60 -43 -62 -83 -148
-96 -209 -8 -36 -28 -57 -184 -192 -182 -157 -246 -209 -258 -209 -7 0 -24 18
-38 40 -21 34 -45 50 -156 105 l-130 66 -32 -20 c-33 -19 -89 -19 -114 1 -17
13 -18 214 -2 224 6 3 45 10 86 15 257 29 479 230 516 468 6 39 14 71 17 71 4
0 83 -47 176 -105z m-2867 24 c83 -29 174 -107 206 -180 l18 -38 37 21 c36 21
38 21 83 4 59 -22 81 -55 74 -112 l-4 -43 53 -26 c149 -73 211 -268 136 -429
-37 -79 -91 -134 -168 -172 l-59 -29 -425 0 c-416 0 -426 0 -472 22 -157 72
-243 264 -185 413 24 64 94 130 152 145 l47 12 3 69 c5 140 84 263 208 324
107 52 184 57 296 19z m4101 5 c109 -32 230 -143 266 -244 27 -75 33 -84 87
-115 60 -35 120 -110 143 -177 22 -68 20 -181 -4 -246 -38 -100 -121 -186
-209 -218 -41 -14 -254 -20 -237 -6 5 5 31 17 57 26 136 50 227 180 227 321 0
49 -6 70 -31 114 -29 51 -32 53 -45 36 -10 -14 -14 -15 -15 -4 0 8 -4 6 -9 -6
-6 -14 -9 -15 -10 -5 0 8 -8 24 -16 35 -15 19 -15 18 -9 -15 25 -143 -20 -257
-125 -314 -65 -36 -145 -43 -432 -41 -115 0 -208 0 -208 -1 0 -1 13 -16 30
-32 27 -27 31 -28 40 -14 8 14 10 14 11 2 1 -8 1 -20 0 -26 -1 -12 89 -64 112
-64 9 0 19 -5 23 -11 5 -9 -23 -11 -109 -7 -98 5 -125 9 -169 31 -175 86 -253
300 -173 475 42 92 111 157 202 192 40 15 48 23 64 64 37 99 138 198 245 240
92 38 191 41 294 10z m-2374 -96 c4 -7 4 -10 -1 -6 -4 4 -14 3 -22 -3 -8 -8
-13 -8 -13 -1 0 6 6 13 13 15 6 3 13 6 14 6 1 1 5 -5 9 -11z m32 -73 c-3 -3
-9 2 -12 12 -6 14 -5 15 5 6 7 -7 10 -15 7 -18z m1286 -775 c22 -46 55 -90
112 -147 91 -94 180 -143 298 -165 l66 -13 0 -167 0 -168 -300 0 -300 0 0 33
c0 17 4 48 9 68 7 31 1 56 -40 168 -61 166 -62 167 -101 175 -43 9 -80 34 -76
52 2 9 66 74 143 144 131 120 141 128 149 107 5 -12 23 -51 40 -87z m-2011
-33 c95 -91 135 -136 129 -145 -5 -7 -32 -20 -60 -30 -29 -11 -55 -21 -58 -25
-3 -3 -30 -69 -59 -147 l-52 -141 15 -54 c25 -90 44 -85 -298 -85 l-300 0 0
169 0 168 55 7 c76 9 177 47 243 93 69 47 162 162 205 254 17 38 34 69 37 68
3 0 67 -59 143 -132z m2614 61 c-2 -7 3 -18 12 -25 14 -10 13 -11 -6 -6 -26 6
-25 5 -17 27 7 19 18 22 11 4z m-1548 -124 c129 -33 273 -126 356 -232 96
-121 138 -247 138 -422 1 -100 -2 -125 -25 -191 -69 -196 -202 -338 -388 -412
-180 -71 -365 -62 -545 27 -152 75 -266 206 -322 369 -26 75 -28 94 -28 227 1
163 15 223 82 332 154 255 445 375 732 302z m2590 -1178 c-12 -34 -32 -84 -44
-113 l-23 -51 -59 55 c-32 30 -82 71 -110 90 l-53 36 0 462 0 463 68 17 c81
20 153 55 201 97 l36 32 3 -514 c2 -503 2 -514 -19 -574z m-5468 1040 c24 -19
68 -46 97 -61 55 -29 67 -41 30 -30 l-23 7 23 -17 c12 -9 22 -24 22 -34 0 -14
6 -17 24 -14 23 5 24 2 21 -30 -2 -25 1 -34 9 -31 29 11 39 -42 33 -168 -4
-68 -7 -145 -7 -171 0 -27 -4 -46 -9 -43 -5 4 -4 -7 2 -23 9 -24 8 -32 -6 -45
-9 -10 -13 -24 -10 -34 6 -14 8 -13 14 8 6 23 7 22 8 -8 1 -22 -3 -31 -10 -26
-8 4 -9 -1 -4 -17 5 -19 4 -21 -4 -9 -10 13 -11 13 -12 0 -1 -8 -1 -22 0 -30
1 -10 -1 -11 -6 -3 -9 12 -66 6 -58 -7 3 -5 15 -6 28 -3 19 4 20 3 5 -7 -10
-6 -18 -18 -18 -25 0 -18 -16 -20 -23 -2 -5 10 -11 -36 -8 -55 0 -5 -4 -8 -10
-8 -6 0 -9 -7 -5 -15 3 -8 1 -15 -5 -15 -6 0 -9 -45 -8 -119 1 -117 -5 -145
-35 -170 -12 -11 -18 -6 -36 29 -12 23 -37 83 -56 132 l-34 91 3 481 c2 264 5
487 7 494 5 18 12 15 61 -22z m795 -110 c12 -13 10 -15 -18 -19 -29 -3 -27 -4
10 -5 l43 -2 -2 -397 c-1 -218 -3 -402 -5 -408 -3 -8 -22 -9 -62 -4 -52 8 -90
6 -210 -6 l-43 -5 1 430 1 430 135 0 c104 0 139 -3 150 -14z m3914 4 c-25 -4
-57 -11 -72 -14 -21 -5 -28 -3 -28 9 0 12 14 15 73 14 67 -2 69 -2 27 -9z m52
-87 c1 -43 2 -48 5 -20 3 25 9 37 20 37 12 0 14 -7 10 -29 -7 -35 0 -44 24
-31 12 7 20 7 24 0 3 -5 1 -10 -4 -10 -6 0 -11 -5 -11 -11 0 -7 10 -9 26 -5
21 6 25 4 21 -8 -4 -9 -2 -16 3 -16 6 0 10 -9 10 -19 0 -11 5 -23 12 -27 8 -5
6 -10 -8 -15 -17 -7 -17 -8 -1 -8 9 -1 17 -6 17 -12 0 -5 -5 -7 -10 -4 -6 4
-19 -4 -30 -17 -23 -27 -26 -46 -5 -28 12 10 15 10 15 -4 0 -9 5 -16 10 -16 6
0 10 5 10 12 0 6 3 8 6 5 4 -4 -7 -21 -25 -39 -31 -32 -39 -48 -22 -48 6 0 9
-18 8 -40 -1 -35 -4 -40 -24 -40 -13 0 -23 -4 -23 -10 0 -5 6 -7 13 -5 6 3 19
0 27 -5 13 -9 13 -12 -4 -25 -10 -8 -24 -17 -30 -20 -8 -3 -7 -7 2 -11 6 -3
12 -10 12 -15 0 -6 -4 -7 -10 -4 -6 4 -10 -5 -10 -20 0 -32 -20 -29 -37 6 -12
23 -13 23 -13 -13 0 -21 4 -38 8 -38 4 0 13 -15 20 -32 l12 -33 -25 30 c-22
25 -25 27 -24 10 1 -11 1 -54 0 -96 l-1 -76 -62 -6 c-35 -2 -70 -6 -78 -8 -13
-4 -15 48 -18 409 l-2 412 80 0 80 0 2 -57z m23 47 c3 -5 1 -10 -4 -10 -6 0
-11 5 -11 10 0 6 2 10 4 10 3 0 8 -4 11 -10z m123 -385 c-3 -3 -9 2 -12 12 -6
14 -5 15 5 6 7 -7 10 -15 7 -18z m-3180 -202 c-2 -62 3 -79 49 -188 51 -120
52 -120 96 -135 47 -16 77 -36 77 -52 0 -5 -13 -22 -28 -36 -84 -81 -475 -438
-483 -440 -5 -2 -9 6 -9 18 0 42 -33 136 -78 225 -37 73 -63 107 -134 177
l-88 87 0 205 0 206 300 0 300 0 -2 -67z m2572 -139 l0 -206 -74 -73 c-122
-119 -193 -241 -220 -379 l-12 -59 -94 89 c-139 131 -319 295 -367 333 -24 19
-43 42 -43 52 0 22 39 49 82 58 30 6 35 14 90 148 49 120 56 146 48 168 -5 14
-10 37 -10 51 l0 24 300 0 300 0 0 -206z m-4115 46 c10 -11 16 -20 13 -20 -3
0 -13 9 -23 20 -10 11 -16 20 -13 20 3 0 13 -9 23 -20z m-13 -62 c-7 -7 -12
-8 -12 -2 0 14 12 26 19 19 2 -3 -1 -11 -7 -17z m585 -332 c135 -36 240 -110
312 -221 61 -92 83 -170 82 -288 0 -114 -25 -201 -81 -285 -185 -276 -539
-322 -776 -100 -97 91 -164 247 -164 383 0 63 27 173 59 241 96 205 353 327
568 270z m4148 -6 c99 -25 188 -75 246 -137 72 -76 83 -97 68 -125 -7 -13 -12
-27 -11 -32 2 -5 -4 -4 -12 3 -12 10 -17 9 -25 -8 -14 -26 -14 -34 2 -25 9 5
9 4 1 -5 -6 -6 -9 -38 -7 -73 5 -78 -19 -192 -53 -259 -28 -55 -116 -149 -140
-149 -8 0 -14 -4 -14 -8 0 -15 -100 -44 -163 -49 -34 -2 -70 -6 -80 -8 -9 -2
-14 1 -11 7 4 6 -2 8 -12 6 -11 -2 -39 4 -62 14 -33 13 -48 15 -60 7 -15 -9
-15 -10 1 -5 24 8 60 -12 54 -29 -3 -7 0 -18 6 -25 7 -7 -2 -4 -18 7 l-30 21
4 -40 c3 -39 2 -41 -22 -36 -15 3 -28 0 -31 -6 -2 -6 -5 -3 -5 7 -1 12 -5 16
-13 11 -10 -6 -10 -5 -1 7 10 13 8 15 -18 13 -19 -1 -34 4 -43 17 -7 10 -15
16 -19 13 -9 -10 -88 98 -118 161 -70 147 -66 306 11 462 81 165 263 279 451
282 25 1 81 -8 124 -19z m-2753 -129 c14 -35 25 -43 143 -100 69 -33 132 -61
140 -61 7 0 24 9 38 20 17 13 40 20 71 20 l46 0 0 -94 0 -94 -42 -7 c-65 -11
-182 -60 -258 -109 -170 -110 -288 -286 -315 -468 -4 -27 -9 -48 -10 -48 -18
0 -536 341 -533 351 3 6 475 443 617 572 36 31 70 57 76 57 7 0 19 -17 27 -39z
m1205 -3 c99 -85 571 -517 617 -566 l29 -31 -104 -67 c-303 -197 -423 -273
-425 -271 -2 1 -10 36 -18 77 -52 252 -285 482 -548 540 l-58 13 0 94 0 93 49
0 c34 0 56 -6 75 -21 32 -25 32 -25 199 58 89 44 110 59 119 83 5 17 14 30 19
30 4 0 25 -15 46 -32z m-517 -623 c132 -35 247 -116 308 -218 56 -93 61 -136
60 -477 -1 -168 -4 -278 -8 -245 -4 33 -7 52 -8 43 -1 -11 -10 -18 -22 -18
-11 0 -20 -5 -20 -11 0 -7 -10 -9 -25 -7 -24 5 -25 3 -26 -51 -2 -98 -8 -147
-24 -177 -8 -16 -15 -35 -15 -41 0 -7 -5 -13 -11 -13 -6 0 -9 -7 -5 -15 4 -10
-1 -15 -17 -16 -12 0 -16 -3 -9 -6 9 -3 6 -13 -10 -36 -12 -18 -26 -35 -30
-38 -5 -3 -6 -13 -2 -22 4 -12 1 -17 -10 -17 -9 0 -16 -4 -16 -10 0 -5 -24
-25 -52 -45 -29 -19 -46 -35 -38 -36 8 0 -7 -7 -35 -15 -76 -21 -253 -16 -239
7 3 5 -2 6 -10 3 -8 -3 -46 9 -83 28 -118 58 -221 185 -253 313 -9 36 -12 149
-11 407 1 339 2 361 23 415 84 227 349 362 588 298z m1750 -209 c0 -3 -4 -8
-10 -11 -5 -3 -10 -1 -10 4 0 6 5 11 10 11 6 0 10 -2 10 -4z m-3234 -46 c77
-48 243 -156 470 -305 l171 -112 5 -74 c3 -41 2 -106 -1 -145 l-6 -71 -150 95
c-491 311 -716 455 -720 462 -3 5 12 22 33 38 21 17 58 58 82 91 25 34 46 61
49 61 2 0 32 -18 67 -40z m2910 -104 l51 -49 -106 -70 c-58 -39 -223 -142
-365 -230 -143 -87 -290 -179 -328 -203 -37 -24 -73 -44 -78 -44 -6 0 -10 55
-10 143 l0 142 213 137 c116 76 275 178 352 227 l140 90 40 -47 c21 -26 63
-69 91 -96z m-1346 -1071 c0 -8 -4 -15 -10 -15 -5 0 -7 7 -4 15 4 8 8 15 10
15 2 0 4 -7 4 -15z m30 5 c0 -5 -4 -10 -10 -10 -5 0 -10 5 -10 10 0 6 5 10 10
10 6 0 10 -4 10 -10z"/>
<path d="M4817 7002 c-36 -38 -37 -93 -2 -127 l24 -25 255 0 255 0 20 26 c31
39 28 98 -5 129 l-27 25 -247 0 -246 0 -27 -28z"/>
<path d="M4746 6636 c7 -19 20 -21 30 -3 4 6 4 9 -1 5 -4 -4 -14 -3 -22 4 -11
8 -12 7 -7 -6z"/>
<path d="M4796 6634 c-4 -9 -4 -19 -1 -22 2 -3 7 3 11 12 4 9 4 19 1 22 -2 3
-7 -3 -11 -12z"/>
<path d="M6485 6820 c-3 -5 -1 -10 4 -10 6 0 11 5 11 10 0 6 -2 10 -4 10 -3 0
-8 -4 -11 -10z"/>
<path d="M2325 5540 c3 -5 8 -10 11 -10 2 0 4 5 4 10 0 6 -5 10 -11 10 -5 0
-7 -4 -4 -10z"/>
<path d="M2538 5373 c7 -3 16 -2 19 1 4 3 -2 6 -13 5 -11 0 -14 -3 -6 -6z"/>
<path d="M2555 4890 c-3 -5 -1 -10 4 -10 6 0 11 5 11 10 0 6 -2 10 -4 10 -3 0
-8 -4 -11 -10z"/>
<path d="M2540 4840 c18 -12 30 -13 30 -2 0 4 -10 9 -22 9 -18 2 -20 0 -8 -7z"/>
<path d="M2536 4815 c4 -8 11 -15 16 -15 6 0 5 6 -2 15 -7 8 -14 15 -16 15 -2
0 -1 -7 2 -15z"/>
<path d="M2460 4750 c0 -5 5 -10 10 -10 6 0 10 5 10 10 0 6 -4 10 -10 10 -5 0
-10 -4 -10 -10z"/>
<path d="M2463 4703 c-1 -19 1 -22 8 -12 11 17 12 39 2 39 -5 0 -9 -12 -10
-27z"/>
<path d="M7543 4085 c0 -8 4 -12 9 -9 5 3 6 10 3 15 -9 13 -12 11 -12 -6z"/>
<path d="M5029 3246 c-64 -23 -103 -51 -134 -95 -27 -39 -30 -50 -30 -125 0
-74 3 -87 28 -125 34 -51 103 -97 160 -105 52 -8 125 13 173 49 77 59 107 184
67 277 -43 96 -174 157 -264 124z"/>
<path d="M5474 2691 c0 -13 6 -16 24 -13 25 5 25 5 -3 20 -17 9 -21 7 -21 -7z"/>
<path d="M5025 2496 c-87 -40 -122 -152 -72 -227 32 -48 101 -81 152 -73 80
12 145 82 145 154 0 43 -33 104 -71 131 -39 27 -112 35 -154 15z"/>
<path d="M3817 7837 c-29 -20 -19 -69 16 -81 23 -8 31 -6 50 12 20 21 21 24 7
50 -18 31 -47 39 -73 19z"/>
<path d="M6294 7829 c-17 -19 -17 -23 -3 -47 21 -39 70 -38 84 2 8 24 6 31
-14 47 -30 24 -43 24 -67 -2z"/>
<path d="M3392 7655 c-33 -28 -44 -72 -30 -122 11 -42 42 -63 91 -63 51 0 107
52 107 99 0 94 -98 145 -168 86z"/>
<path d="M6651 7654 c-53 -45 -51 -132 5 -169 31 -20 94 -19 120 3 55 44 59
109 10 158 -43 43 -90 46 -135 8z"/>
<path d="M8401 5584 c0 -11 3 -14 6 -6 3 7 2 16 -1 19 -3 4 -6 -2 -5 -13z"/>
<path d="M8421 5444 c0 -11 3 -14 6 -6 3 7 2 16 -1 19 -3 4 -6 -2 -5 -13z"/>
<path d="M8432 5330 c0 -19 2 -27 5 -17 2 9 2 25 0 35 -3 9 -5 1 -5 -18z"/>
<path d="M8460 5216 c0 -8 6 -16 14 -19 10 -4 12 0 9 14 -6 22 -23 26 -23 5z"/>
<path d="M8500 5179 c0 -6 -7 -9 -15 -5 -8 3 -15 1 -15 -4 0 -6 6 -10 14 -10
8 0 16 -3 19 -7 2 -5 2 -2 1 5 -2 6 1 12 6 12 6 0 10 5 10 10 0 6 -4 10 -10
10 -5 0 -10 -5 -10 -11z"/>
<path d="M8670 5180 c0 -5 5 -10 10 -10 6 0 10 5 10 10 0 6 -4 10 -10 10 -5 0
-10 -4 -10 -10z"/>
<path d="M1703 5150 c-87 -52 -83 -198 6 -245 92 -47 201 26 201 136 0 102
-117 164 -207 109z"/>
<path d="M8553 5030 c0 -25 2 -35 4 -22 2 12 2 32 0 45 -2 12 -4 2 -4 -23z"/>
<path d="M8616 5027 c3 -10 9 -15 12 -12 3 3 0 11 -7 18 -10 9 -11 8 -5 -6z"/>
<path d="M8641 4983 c0 -11 3 -13 6 -5 2 6 9 12 15 12 6 0 7 -7 4 -16 -3 -8
-2 -12 4 -9 6 3 10 -2 11 -12 0 -10 3 -13 5 -6 7 17 -14 53 -31 53 -8 0 -15
-8 -14 -17z"/>
<path d="M3408 2574 c-54 -29 -73 -101 -41 -154 66 -112 245 -16 189 102 -29
60 -92 83 -148 52z"/>
<path d="M6644 2556 c-30 -30 -34 -40 -34 -84 0 -44 4 -54 31 -76 47 -40 110
-37 155 8 24 24 34 43 34 65 0 68 -53 121 -121 121 -22 0 -41 -10 -65 -34z"/>
<path d="M3814 2265 c-15 -23 -15 -27 0 -50 29 -44 86 -28 86 25 0 53 -57 69
-86 25z"/>
<path d="M4148 1833 c7 -3 16 -2 19 1 4 3 -2 6 -13 5 -11 0 -14 -3 -6 -6z"/>
<path d="M4480 1750 c14 -4 36 -8 50 -8 l25 0 -25 8 c-14 4 -36 8 -50 8 l-25
0 25 -8z"/>
<path d="M4435 1730 c-3 -5 -1 -10 4 -10 6 0 11 5 11 10 0 6 -2 10 -4 10 -3 0
-8 -4 -11 -10z"/>
<path d="M4556 1732 c-2 -4 0 -14 6 -22 8 -12 9 -12 4 2 -3 12 2 18 17 21 l22
4 -22 2 c-12 0 -24 -3 -27 -7z"/>
<path d="M4590 1709 c0 -5 11 -9 25 -9 14 0 25 2 25 4 0 2 -11 6 -25 8 -14 3
-25 1 -25 -3z"/>
<path d="M4552 1620 c-7 -12 -8 -20 -2 -20 5 0 10 5 10 12 0 6 9 3 20 -7 26
-23 34 -15 14 13 -19 27 -26 27 -42 2z"/>
<path d="M4478 1613 c6 -2 18 -2 25 0 6 3 1 5 -13 5 -14 0 -19 -2 -12 -5z"/>
<path d="M4626 1603 c-11 -11 -6 -23 9 -23 8 0 15 4 15 9 0 13 -16 22 -24 14z"/>
<path d="M4570 1565 c7 -9 19 -14 26 -11 7 3 15 0 17 -7 2 -7 8 -9 12 -5 16
15 -5 38 -36 38 -27 0 -30 -2 -19 -15z"/>
<path d="M4443 1543 c9 -2 23 -2 30 0 6 3 -1 5 -18 5 -16 0 -22 -2 -12 -5z"/>
</g>
</svg>
